<?xml version="1.0" encoding="utf-8"?>
<!-- Generator: Adobe Illustrator 16.0.0, SVG Export Plug-In . SVG Version: 6.00 Build 0)  -->
<!DOCTYPE svg PUBLIC "-//W3C//DTD SVG 1.1//EN" "http://www.w3.org/Graphics/SVG/1.1/DTD/svg11.dtd">
<svg version="1.1" id="Layer_1" xmlns="http://www.w3.org/2000/svg" xmlns:xlink="http://www.w3.org/1999/xlink" x="0px" y="0px"
	 width="155.5px" height="155.5px" viewBox="0 -55.5 155.5 155.5" enable-background="new 0 -55.5 155.5 155.5"
	 xml:space="preserve">
<path fill="none" stroke="#FFFFFF" stroke-width="4" stroke-miterlimit="10" d="M77.999-52.999C119.424-52.999,153-19.42,153,22.002
	c0,41.422-33.576,75.001-75.001,75.001c-41.423,0-75.002-33.579-75.002-75.001C2.997-19.42,36.576-52.999,77.999-52.999z"/>
<g>
	<path fill="#FFFFFF" stroke="#FFFFFF" stroke-width="0.25" stroke-miterlimit="10" d="M81.469,20.274
		c1.104,0.664,2.191,1.229,3.181,1.927c3.487,2.467,5.479,5.919,6.207,10.063c0.774,4.356,0.271,8.583-1.868,12.523
		c-1.974,3.626-4.986,6.124-8.717,7.792c-3.2,1.431-6.572,2.201-10.059,2.236c-8.081,0.089-16.162,0.068-24.241,0.089
		c-0.156,0-0.311-0.03-0.541-0.046c0-0.229,0-0.443,0-0.647c0-19.349-0.003-38.704,0.004-58.054
		c0.004-3.588,3.116-6.723,6.706-6.734c5.643-0.021,11.282-0.072,16.929,0.02c4.738,0.078,9.243,1.144,13.148,3.997
		c3.941,2.877,5.999,6.814,6.333,11.665c0.278,4.012-0.54,7.755-2.944,11.027c-0.805,1.1-1.852,2.027-2.81,3.009
		C82.394,19.544,81.933,19.88,81.469,20.274z M58.176,43.678c0.155,0.029,0.232,0.055,0.309,0.055
		c3.97-0.01,7.947,0.095,11.915-0.061c2.869-0.115,5.27-1.4,6.593-4.076c1.525-3.079,1.571-6.286-0.004-9.359
		c-1.509-2.947-4.207-4.077-7.36-4.177c-2.592-0.08-5.192-0.031-7.785-0.012c-1.815,0.016-3.187,1.182-3.513,2.971
		c-0.104,0.557-0.148,1.13-0.148,1.7c-0.012,4.105-0.008,8.216-0.008,12.329C58.176,43.242,58.176,43.438,58.176,43.678z
		 M58.207,15.857c3.173,0,6.257,0.004,9.339,0c0.435,0,0.867,0.015,1.301-0.024c2.297-0.192,4.209-1.084,5.492-3.07
		c1.173-1.814,1.46-3.828,1.3-5.935c-0.279-3.646-2.706-6.23-6.341-6.509c-2.407-0.183-4.834-0.155-7.246-0.087
		c-1.597,0.045-2.991,0.668-3.533,2.347c-0.235,0.728-0.317,1.535-0.325,2.313c-0.035,3.438-0.015,6.883-0.012,10.321
		C58.18,15.407,58.195,15.598,58.207,15.857z"/>
	<path fill="#FFFFFF" stroke="#FFFFFF" stroke-width="0.25" stroke-miterlimit="10" d="M97.631,47.711
		c-0.008-4.291,3.49-7.781,7.808-7.787c4.434-0.005,7.962,3.496,7.959,7.9c-0.003,4.16-3.601,7.776-7.748,7.783
		C101.163,55.621,97.637,52.152,97.631,47.711z"/>
</g>
</svg>
