<?xml version="1.0" encoding="utf-8"?>
<!-- Generator: Adobe Illustrator 16.0.0, SVG Export Plug-In . SVG Version: 6.00 Build 0)  -->
<!DOCTYPE svg PUBLIC "-//W3C//DTD SVG 1.1//EN" "http://www.w3.org/Graphics/SVG/1.1/DTD/svg11.dtd">
<svg version="1.1" id="Layer_1" xmlns="http://www.w3.org/2000/svg" xmlns:xlink="http://www.w3.org/1999/xlink" x="0px" y="0px"
	 width="155.5px" height="155.5px" viewBox="0 -55.5 155.5 155.5" enable-background="new 0 -55.5 155.5 155.5"
	 xml:space="preserve">
<path fill="none" stroke="#FFFFFF" stroke-width="4" stroke-miterlimit="10" d="M77.999-52.999C119.424-52.999,153-19.42,153,22.002
	c0,41.422-33.576,75.001-75.001,75.001c-41.423,0-75.002-33.579-75.002-75.001C2.997-19.42,36.576-52.999,77.999-52.999z"/>
<g id="White_1_">
	<path fill="#FFFFFF" d="M110.284-13.998H46.233c-2.196,0-3.975,1.779-3.975,3.974v64.053c0,2.193,1.779,3.973,3.975,3.973h34.482
		V30.121h-9.383V19.254h9.383V11.24c0-9.3,5.68-14.363,13.977-14.363c3.974,0,7.389,0.295,8.385,0.428v9.719l-5.754,0.003
		c-4.513,0-5.385,2.144-5.385,5.29v6.938h10.76l-1.401,10.866h-9.358v27.88h18.348c2.193,0,3.973-1.779,3.973-3.975v-64.051
		C114.259-12.219,112.479-13.998,110.284-13.998z"/>
</g>
</svg>
