<?xml version="1.0" encoding="utf-8"?>
<!-- Generator: Adobe Illustrator 16.0.0, SVG Export Plug-In . SVG Version: 6.00 Build 0)  -->
<!DOCTYPE svg PUBLIC "-//W3C//DTD SVG 1.1//EN" "http://www.w3.org/Graphics/SVG/1.1/DTD/svg11.dtd">
<svg version="1.1" id="Layer_1" xmlns="http://www.w3.org/2000/svg" xmlns:xlink="http://www.w3.org/1999/xlink" x="0px" y="0px"
	 width="155.5px" height="155.5px" viewBox="0 -55.5 155.5 155.5" enable-background="new 0 -55.5 155.5 155.5"
	 xml:space="preserve">
<path fill="none" stroke="#FFFFFF" stroke-width="4" stroke-miterlimit="10" d="M77.999-52.999C119.424-52.999,153-19.42,153,22.002
	c0,41.422-33.576,75.001-75.001,75.001c-41.423,0-75.002-33.579-75.002-75.001C2.997-19.42,36.576-52.999,77.999-52.999z"/>
<g>
	<path fill="#FFFFFF" d="M113.941-4.374H42.054c-1.41,0-2.556,1.147-2.556,2.557v5.144c0,0.237,0.257,0.509,0.467,0.619
		l37.786,21.583c0.099,0.057,0.208,0.083,0.317,0.083c0.113,0,0.226-0.029,0.324-0.088l36.645-21.557
		c0.206-0.115,0.752-0.419,0.957-0.559c0.248-0.169,0.504-0.322,0.504-0.625v-4.601C116.498-3.227,115.352-4.374,113.941-4.374z"/>
	<path fill="#FFFFFF" d="M116.18,11.083c-0.201-0.116-0.445-0.111-0.646,0.004L94.797,23.289c-0.166,0.096-0.281,0.266-0.309,0.458
		c-0.025,0.191,0.035,0.386,0.164,0.527l20.74,22.357c0.123,0.133,0.291,0.203,0.467,0.203c0.078,0,0.158-0.015,0.234-0.043
		c0.244-0.097,0.404-0.332,0.404-0.596V11.639C116.498,11.409,116.377,11.198,116.18,11.083z"/>
	<path fill="#FFFFFF" d="M88.821,27.385c-0.204-0.221-0.532-0.27-0.791-0.117l-8.312,4.891c-0.977,0.574-2.227,0.579-3.209,0.021
		L69.195,28c-0.242-0.137-0.547-0.104-0.752,0.086L40.666,53.854c-0.148,0.137-0.222,0.336-0.2,0.537
		c0.022,0.201,0.139,0.381,0.314,0.482c0.432,0.254,0.849,0.375,1.273,0.375h71.153c0.255,0,0.485-0.15,0.585-0.385
		c0.102-0.232,0.057-0.504-0.118-0.689L88.821,27.385z"/>
	<path fill="#FFFFFF" d="M62.332,25.039c0.15-0.137,0.225-0.339,0.203-0.54c-0.021-0.202-0.143-0.381-0.318-0.483L40.451,11.583
		c-0.194-0.112-0.439-0.11-0.637,0.004c-0.196,0.114-0.316,0.325-0.316,0.552v32.62c0,0.253,0.15,0.482,0.382,0.584
		c0.082,0.037,0.169,0.055,0.257,0.055c0.157,0,0.314-0.059,0.434-0.171L62.332,25.039z"/>
</g>
</svg>
