<?xml version="1.0" encoding="utf-8"?>
<!-- Generator: Adobe Illustrator 16.0.0, SVG Export Plug-In . SVG Version: 6.00 Build 0)  -->
<!DOCTYPE svg PUBLIC "-//W3C//DTD SVG 1.1//EN" "http://www.w3.org/Graphics/SVG/1.1/DTD/svg11.dtd">
<svg version="1.1" id="Layer_1" xmlns="http://www.w3.org/2000/svg" xmlns:xlink="http://www.w3.org/1999/xlink" x="0px" y="0px"
	 width="155.5px" height="155.5px" viewBox="0 -55.5 155.5 155.5" enable-background="new 0 -55.5 155.5 155.5"
	 xml:space="preserve">
<path fill="none" stroke="#FFFFFF" stroke-width="4" stroke-miterlimit="10" d="M77.999-52.999C119.424-52.999,153-19.42,153,22.002
	c0,41.422-33.576,75.001-75.001,75.001c-41.423,0-75.002-33.579-75.002-75.001C2.997-19.42,36.576-52.999,77.999-52.999z"/>
<g>
	<path fill="#FFFFFF" d="M119.717-19.463c0-0.016,0.006-0.031,0.006-0.047c0-1.51-1.224-2.731-2.73-2.733l0,0h-0.002
		c0,0,0,0-0.002,0l0,0H67.32l0,0l0,0h-0.012v0.011L35.781,9.297h-0.003v55.365h0.003c0,0,0,0,0,0.001
		c0,1.507,1.227,2.731,2.734,2.731l0,0h78.479l0,0c1.307-0.002,2.396-0.924,2.663-2.15h0.06v-0.536c0-0.015,0.004-0.028,0.004-0.044
		s-0.004-0.029-0.004-0.044V-19.463z M95.389-12.286h14.371v24.597L91.646-5.803L95.389-12.286z M67.32,12.029L67.32,12.029
		c1.504-0.007,2.722-1.227,2.722-2.731V9.297l0,0v-21.583H89.63L62.46,34.773L45.734,18.049v-6.02H67.32z M45.734,57.438V25.104
		l14.144,14.143L49.376,57.438H45.734z M55.135,57.438l33.93-58.769l20.697,20.696v38.072H55.135z"/>
	<path fill="#FFFFFF" d="M89.779,18.152c-6.645,0-12.025,5.387-12.025,12.027c0,2.658,0.873,5.108,2.334,7.1l7.76,13.439
		c0.047,0.094,0.096,0.186,0.156,0.271l0.016,0.026l0.004-0.002c0.395,0.545,1.028,0.899,1.765,0.899
		c0.664,0,1.243-0.302,1.642-0.767l0.02,0.011l0.074-0.129c0.115-0.153,0.215-0.317,0.287-0.497l7.608-13.178
		c1.494-2.004,2.39-4.482,2.39-7.176C101.807,23.539,96.425,18.152,89.779,18.152z M89.661,36.276c-3.274,0-5.927-2.651-5.927-5.925
		c0-3.274,2.652-5.928,5.927-5.928s5.926,2.653,5.926,5.928C95.587,33.625,92.936,36.276,89.661,36.276z"/>
</g>
</svg>
